<svg width="55" height="52" viewBox="0 0 55 52" fill="none" xmlns="http://www.w3.org/2000/svg">
<path d="M53.2842 28.5825C49.9837 27.2368 43.8656 21.9072 33.1014 29.9176C30.2717 28.3476 25.0282 24.5774 16.9551 31.2527C16.0119 27.4397 15.8235 18.7618 16.9551 11.2268C17.426 10.1053 19.3689 9.31095 25.0282 15.2319L31.7558 8.55665C31.2849 5.64088 27.7193 1.88135 16.9551 1.88135C12.9185 1.88135 9.23445 5.30578 7.5364 11.2268C5.4145 17.2813 2.1543 31.2527 2.1543 39.263C2.1543 41.7302 5.51811 47.2734 18.3006 47.2734C20.9916 47.2734 28.863 47.5738 38.4835 43.2682L46.5566 49.9435" stroke="#DA2348" stroke-width="3.0678" stroke-linecap="round" stroke-linejoin="round"/>
</svg>
