<svg width="391" height="181" viewBox="0 0 391 181" fill="none" xmlns="http://www.w3.org/2000/svg">
<path d="M2.84556 146.407C-2.24164 170.436 17.5985 171.723 44.5607 170.436C143.931 170.436 347.352 170.35 366.072 170.007C389.474 169.578 391 156.705 391 147.265V80.3272C391 59.3018 381.334 56.7273 359.968 53.2946C338.602 49.8619 103.572 7.8111 71.523 1.80384C39.4736 -4.20341 35.9126 5.66565 32.8603 18.5383C29.8079 31.411 7.93277 122.378 2.84556 146.407Z" fill="#FDFDFD" fill-opacity="0.5"/>
<path d="M0.802892 156.633C-4.31109 180.662 15.6334 181.949 42.7376 180.662C142.631 180.662 347.122 180.576 365.941 180.233C389.466 179.804 391 166.931 391 157.491V90.5533C391 69.5279 381.283 66.9534 359.805 63.5207C338.326 60.088 102.06 18.0372 69.8418 12.0299C37.6237 6.02266 34.0439 15.8917 30.9756 28.7644C27.9072 41.6371 5.91688 132.604 0.802892 156.633Z" fill="#FDFDFD"/>
</svg>
