<svg width="35" height="34" viewBox="0 0 35 34" fill="none" xmlns="http://www.w3.org/2000/svg">
<path d="M17.8408 0C8.45186 0 0.84082 7.61104 0.84082 17C0.84082 26.389 8.45186 34 17.8408 34C27.2298 34 34.8408 26.389 34.8408 17C34.8408 7.61104 27.2298 0 17.8408 0ZM13.6794 24.0461H10.2369V12.9678H13.6794V24.0461ZM11.9369 11.6078C10.8496 11.6078 10.1465 10.8375 10.1465 9.88479C10.1465 8.9126 10.8708 8.16531 11.9811 8.16531C13.0914 8.16531 13.7714 8.9126 13.7927 9.88479C13.7927 10.8375 13.0914 11.6078 11.9369 11.6078ZM26.2523 24.0461H22.8098V17.9067C22.8098 16.4776 22.3104 15.5072 21.0655 15.5072C20.1146 15.5072 19.5497 16.1642 19.3 16.7964C19.2079 17.0212 19.1849 17.34 19.1849 17.657V24.0444H15.7406V16.5006C15.7406 15.1176 15.6963 13.9612 15.6503 12.966H18.6412L18.7988 14.5049H18.8679C19.3212 13.7824 20.4315 12.7164 22.2892 12.7164C24.554 12.7164 26.2523 14.234 26.2523 17.4958V24.0461Z" fill="#FDFDFD"/>
</svg>
