<svg width="161" height="26" viewBox="0 0 161 26" fill="none" xmlns="http://www.w3.org/2000/svg">
<g clip-path="url(#clip0_431_344)">
<path d="M32.7695 0H38.429V23.1044H41.2735C42.0603 23.1044 42.7327 22.8182 43.2868 22.2497C43.8409 21.6811 44.118 21.0071 44.118 20.2314V0H49.7774V23.1044H52.6219C53.394 23.1044 54.0552 22.8182 54.6093 22.2497C55.1635 21.6811 55.4405 21.0071 55.4405 20.2314V0H61.1258V16.1272C61.1258 18.8156 60.1764 21.1351 58.2776 23.0818C56.3788 25.0285 54.0995 26 51.4435 26H44.1217V25.0775C43.0319 25.6912 41.6909 26 40.095 26H32.7732V0H32.7695Z" fill="black"/>
<path d="M80.9453 5.76855H78.1304C77.8829 3.83691 76.9889 2.86921 75.4484 2.86921C74.4547 2.86921 73.7085 3.11396 73.2024 3.59969C72.6963 4.08543 72.4451 4.81591 72.4451 5.77985C72.4451 6.50281 72.7258 7.18057 73.2837 7.80939L79.2903 14.6888C80.3986 15.9539 80.9527 17.3132 80.9527 18.7629V20.2239C80.9527 21.7865 80.3986 23.1383 79.2903 24.2792C78.1821 25.4201 76.8485 25.9924 75.2896 25.9924H72.4451C70.5685 25.9924 69.1536 25.5105 68.2079 24.5428C67.2585 23.5788 66.7856 22.1367 66.7856 20.2239H69.6301C69.6117 20.4234 69.6043 20.5816 69.6043 20.6983C69.6043 21.4853 69.8998 22.0802 70.4946 22.4869C71.0893 22.8935 71.7395 23.0969 72.4488 23.0969C73.4573 23.0969 74.185 22.8484 74.6283 22.3513C75.0716 21.8543 75.2933 21.1313 75.2933 20.1862C75.2933 19.4557 75.0125 18.778 74.4547 18.1567L68.448 11.3037C67.3398 10.0498 66.7856 8.6905 66.7856 7.22576V5.76479C66.7856 4.19462 67.3398 2.83908 68.448 1.70194C69.5563 0.564789 70.8898 -0.00378418 72.4488 -0.00378418H75.2933C78.836 -0.00378418 80.7237 1.92033 80.9527 5.76479L80.9453 5.76855Z" fill="black"/>
<path d="M95.1345 11.5635H103.638V20.2314C103.638 22.1442 103.033 23.5864 101.825 24.5503C100.617 25.518 99.3348 26 97.979 26H92.2937C90.7422 26 89.4123 25.4352 88.3003 24.3018C87.1884 23.1684 86.6343 21.8129 86.6343 20.2314V5.76857C86.6343 4.21723 87.181 2.86546 88.2745 1.72078C89.3679 0.576104 90.7089 0 92.2937 0H97.979C101.54 0 103.428 1.92411 103.638 5.76857H100.794C100.572 3.85576 99.634 2.89935 97.979 2.89935H95.1345C94.355 2.89935 93.6864 3.18175 93.1286 3.74656C92.5708 4.31137 92.29 4.98537 92.29 5.77234V20.2314C92.29 21.0259 92.5708 21.7037 93.1286 22.261C93.6864 22.822 94.355 23.1007 95.1345 23.1007C96.941 23.0103 97.8903 22.0539 97.979 20.2314V14.4365H95.1345V11.5673V11.5635Z" fill="black"/>
<path d="M114.957 26V14.4365C111.186 13.9959 109.298 12.0718 109.298 8.66792V0H114.957V8.66792C114.957 9.45489 115.238 10.1327 115.796 10.705C116.354 11.2773 117.022 11.5635 117.802 11.5635C118.581 11.5635 119.239 11.2773 119.8 10.705C120.362 10.1327 120.643 9.45112 120.643 8.66792V0H126.302V8.66792C126.302 12.0718 124.414 13.9959 120.643 14.4365V26H114.957Z" fill="black"/>
<path d="M131.961 26V0H133.251L145.367 12.3241L157.47 0H160.314V26H154.629V10.1025L144.677 20.2465L134.806 10.1025V26H131.961Z" fill="black"/>
<path d="M25.4442 1.70572C24.3323 0.568574 23.0024 0 21.4509 0H15.7656C14.2177 0 12.8841 0.568574 11.7722 1.69819C10.6602 2.83157 10.1061 4.18711 10.1061 5.76857V11.5635H7.98937V4.48081H4.83457V21.5192H7.98937V14.4365H10.1061V26H15.7656V14.4365H21.4509V26H27.1103V5.76857C27.1103 4.19841 26.5562 2.84287 25.4442 1.70572ZM21.4509 11.5635H15.7656V5.76857C15.7656 4.98161 16.0463 4.3076 16.6041 3.74279C17.1619 3.17799 17.8306 2.89558 18.6101 2.89558C19.3895 2.89558 20.0471 3.17799 20.6086 3.74279C21.1701 4.3076 21.4509 4.98161 21.4509 5.76857V11.5635ZM0.686035 6.90195H3.84084V19.1018H0.686035V6.90195Z" fill="url(#paint0_linear_431_344)"/>
</g>
<defs>
<linearGradient id="paint0_linear_431_344" x1="35.4406" y1="12.84" x2="-16.5917" y2="13.409" gradientUnits="userSpaceOnUse">
<stop stop-color="#E8AF07"/>
<stop offset="1" stop-color="#EF6D1F"/>
</linearGradient>
<clipPath id="clip0_431_344">
<rect width="159.628" height="26" fill="white" transform="translate(0.686035)"/>
</clipPath>
</defs>
</svg>
