<svg width="35" height="34" viewBox="0 0 35 34" fill="none" xmlns="http://www.w3.org/2000/svg">
<path d="M0.847643 34L3.14604 25.5544C1.63158 22.9582 0.835906 20.0056 0.840843 17C0.840843 7.6109 8.45174 0 17.8408 0C27.2299 0 34.8408 7.6109 34.8408 17C34.8408 26.3891 27.2299 34 17.8408 34C14.8366 34.0048 11.8852 33.2098 9.28984 31.6965L0.847643 34ZM11.7055 9.02359C11.486 9.03722 11.2715 9.09505 11.0748 9.19359C10.8904 9.29802 10.7221 9.42858 10.575 9.58119C10.371 9.77329 10.2554 9.93989 10.1313 10.1014C9.50304 10.9191 9.16507 11.9228 9.17084 12.954C9.17424 13.787 9.39184 14.5979 9.73184 15.3561C10.4271 16.8895 11.5712 18.513 13.0825 20.0175C13.4463 20.3796 13.8016 20.7434 14.1841 21.0817C16.0599 22.7332 18.2952 23.9242 20.7121 24.5599L21.6794 24.7078C21.9939 24.7248 22.3084 24.701 22.6246 24.6857C23.1197 24.6601 23.6032 24.5261 24.0407 24.293C24.2634 24.1783 24.4806 24.0535 24.6918 23.919C24.6918 23.919 24.7649 23.8714 24.9043 23.766C25.1338 23.596 25.2749 23.4753 25.4653 23.2764C25.6064 23.1302 25.7288 22.9585 25.8223 22.763C25.9549 22.4859 26.0875 21.9572 26.1419 21.5169C26.1827 21.1803 26.1708 20.9967 26.1657 20.8828C26.1589 20.7009 26.0076 20.5122 25.8427 20.4323L24.8533 19.9886C24.8533 19.9886 23.3743 19.3443 22.4716 18.9329C22.3765 18.8914 22.2745 18.8678 22.1707 18.8632C22.0544 18.8512 21.9369 18.8643 21.8261 18.9016C21.7152 18.9388 21.6136 18.9993 21.5281 19.0791V19.0757C21.5196 19.0757 21.4057 19.1726 20.1766 20.6618C20.1061 20.7566 20.0089 20.8282 19.8975 20.8676C19.7861 20.9069 19.6655 20.9122 19.551 20.8828C19.4403 20.8532 19.3318 20.8157 19.2263 20.7706C19.0155 20.6822 18.9424 20.6482 18.7979 20.5853L18.7894 20.5819C17.8169 20.1573 16.9164 19.5837 16.1204 18.8819C15.9062 18.6949 15.7073 18.4909 15.5033 18.2937C14.8345 17.6532 14.2516 16.9286 13.7693 16.1381L13.669 15.9766C13.597 15.8681 13.5387 15.751 13.4956 15.6281C13.431 15.3782 13.5993 15.1776 13.5993 15.1776C13.5993 15.1776 14.0124 14.7254 14.2045 14.4806C14.3645 14.2771 14.5137 14.0655 14.6516 13.8465C14.8522 13.5235 14.9151 13.192 14.8097 12.9353C14.3337 11.7725 13.8407 10.6148 13.3341 9.46559C13.2338 9.23779 12.9363 9.07459 12.666 9.04229C12.5742 9.03209 12.4824 9.02189 12.3906 9.01509C12.1623 9.00375 11.9336 9.00772 11.7055 9.02359Z" fill="#FDFDFD"/>
</svg>
